<?xml version="1.0" encoding="utf-8"?>
<!-- Generator: Adobe Illustrator 18.0.0, SVG Export Plug-In . SVG Version: 6.00 Build 0)  -->
<!DOCTYPE svg PUBLIC "-//W3C//DTD SVG 1.1//EN" "http://www.w3.org/Graphics/SVG/1.1/DTD/svg11.dtd">
<svg version="1.1" id="Layer_1" xmlns="http://www.w3.org/2000/svg" xmlns:xlink="http://www.w3.org/1999/xlink" x="0px" y="0px"
	 viewBox="0 0 368 362" enable-background="new 0 0 368 362" xml:space="preserve">
<title>Oval</title>
<desc>Created with Sketch.</desc>
<circle display="none" fill="#FFFFFF" cx="192" cy="186" r="154"/>
<g id="Desktop" display="none">
	<g id="LOGO" transform="translate(-706.000000, -6304.000000)" display="inline">
		<g id="final" transform="translate(201.000000, 5862.000000)">
			<g id="badge" transform="translate(87.000000, 442.000000)">
				<g id="Group-18" transform="translate(418.000000, 0.000000)">
					<g id="b">
						<path id="Oval" fill="#D6372E" d="M184,362c101.6,0,184-81,184-181S285.6,0,184,0S0,81,0,181S82.4,362,184,362z M94.2,215.5
							L120.8,55L160,99.5c9.3,9.6,23,17,42.5,17.3h18.8c1.5-0.1,3-0.1,4.4-0.1c53.8,0,73.1,26.3,62.4,91.1
							c-8.7,52.7-43,86.7-89.6,88.2l0,0c-2.4,0-4.9,0-7.6,0h-31.7C101.2,296,88.7,257.8,94.2,215.5z M185.7,245.2
							c19.3,0,34.5-15.8,38.3-39.1s-6.2-39.1-25.6-39.1c-18.7,0-34.2,15.8-38,39.1C156.6,229.3,167,245.2,185.7,245.2z"/>
					</g>
				</g>
			</g>
		</g>
	</g>
</g>
<ellipse display="none" fill="#021728" cx="185" cy="182" rx="175" ry="175"/>
<g>
	<path fill="#FE6700" d="M330,179.4c0,70.8-54.1,129.3-124.4,139v-71.7h20.5v39.5c44.7-16.1,76.6-57.8,76.6-106.8
		c0-41.4-22.8-77.7-56.9-97.6c-4.1-15-11.8-28-21.7-37.6C285.2,60.7,330,115,330,179.4z"/>
	<path fill="#FE6700" d="M161.8,246.7V318c-7-1.1-13.7-2.6-20.3-4.6c-0.1,0-0.1,0-0.2-0.1C82.6,295.4,40,242.2,40,179.4
		C40,116.4,83,63,142.1,45.3c-9.9,9.9-17.3,23.3-21.2,38.6c-32.2,20.3-53.6,55.5-53.6,95.5c0,48,30.6,89,74,105.8v-38.5H161.8z"/>
	<path fill="#00D69A" d="M111.5,128.6l-37.1,80.8c-0.6,1.3-0.3,2.8,0.7,3.8l5.8,5.8c0.6,0.6,1.5,1,2.4,1h32.4c1.9,0,3.4-1.5,3.4-3.4
		v-85.4c0-0.9-0.4-1.8-1-2.4l-1.1-1.1C115.3,126,112.5,126.5,111.5,128.6z"/>
	<path fill="#00D69A" d="M256.8,128.6l37.1,80.8c0.6,1.3,0.3,2.8-0.7,3.8l-5.8,5.8c-0.6,0.6-1.5,1-2.4,1h-32.4
		c-1.9,0-3.4-1.5-3.4-3.4v-85.4c0-0.9,0.4-1.8,1-2.4l1.1-1.1C253,126,255.8,126.5,256.8,128.6z"/>
	<path fill="#00D69A" d="M183.6,39c-28.4,0-51.4,26.9-51.4,60.1H235C235,65.9,212,39,183.6,39z M183.6,89.1
		c-8.6,0-15.5-6.9-15.5-15.5s6.9-15.5,15.5-15.5c8.6,0,15.5,6.9,15.5,15.5S192.2,89.1,183.6,89.1z"/>
	<path fill="#00D69A" d="M134,114v111.6l9.6,7.4h18.2h11.6H194h11.6h18.1h3.3v3.6l8-11V114H134z M200,133.5v80.8
		c0,5.9-8.6,10.8-16.1,10.8c-7.3,0-15.9-4.8-15.9-10.8v-80.8c0-5.9,8.6-10.8,15.9-10.8C191.4,122.7,200,127.5,200,133.5z"/>
	<rect x="173.5" y="246.5" fill="#00D69A" width="20.4" height="71.7"/>
</g>
</svg>
