<?xml version="1.0" encoding="utf-8"?>
<!-- Generator: Adobe Illustrator 18.0.0, SVG Export Plug-In . SVG Version: 6.00 Build 0)  -->
<!DOCTYPE svg PUBLIC "-//W3C//DTD SVG 1.1//EN" "http://www.w3.org/Graphics/SVG/1.1/DTD/svg11.dtd">
<svg version="1.1" id="Layer_1" xmlns="http://www.w3.org/2000/svg" xmlns:xlink="http://www.w3.org/1999/xlink" x="0px" y="0px"
	 viewBox="0 0 800 800" enable-background="new 0 0 800 800" xml:space="preserve">
<title>Oval</title>
<desc>Created with Sketch.</desc>
<circle display="none" fill="#FFFFFF" cx="417.4" cy="410.9" r="334.8"/>
<g id="Desktop" display="none">
	<g id="LOGO" transform="translate(-706.000000, -6304.000000)" display="inline">
		<g id="final" transform="translate(201.000000, 5862.000000)">
			<g id="badge" transform="translate(87.000000, 442.000000)">
				<g id="Group-18" transform="translate(418.000000, 0.000000)">
					<g id="b">
						<path id="Oval" fill="#D6372E" d="M400,793.5c220.9,0,400-176.1,400-393.5S620.9,6.5,400,6.5S0,182.6,0,400
							S179.1,793.5,400,793.5z M204.8,475l57.8-348.9l85.2,96.7c20.2,20.9,50,37,92.4,37.6h40.9c3.3-0.2,6.5-0.2,9.6-0.2
							c117,0,158.9,57.2,135.7,198C607.4,572.8,532.8,646.7,431.5,650l0,0c-5.2,0-10.7,0-16.5,0h-68.9C220,650,192.8,567,204.8,475z
							 M403.7,539.6c42,0,75-34.3,83.3-85s-13.5-85-55.7-85c-40.7,0-74.3,34.3-82.6,85C340.4,505,363,539.6,403.7,539.6z"/>
					</g>
				</g>
			</g>
		</g>
	</g>
</g>
<ellipse fill="#021728" cx="400.5" cy="399.4" rx="380.4" ry="380.4"/>
<g>
	<path fill="#FE6700" d="M712,396.3c0,151.3-115.7,276.5-266.1,297.1V540.1h43.8v84.4c95.7-34.5,163.8-123.7,163.8-228.3
		c0-88.5-48.8-166-121.8-208.7c-8.8-32.1-25.2-60-46.5-80.4C616.1,142.4,712,258.4,712,396.3z"/>
	<path fill="#FE6700" d="M352.4,540.1v152.4c-14.9-2.3-29.4-5.7-43.4-9.9c-0.1,0-0.2-0.1-0.4-0.1C183.1,644.1,92,530.5,92,396.3
		c0-134.9,91.8-248.9,218.2-286.8c-21.1,21.2-37.1,49.8-45.3,82.5c-68.9,43.5-114.6,118.7-114.6,204.3
		c0,102.6,65.5,190.3,158.2,226.2v-82.4H352.4z"/>
	<path fill="#00D69A" d="M244.9,287.6l-79.3,172.7c-1.3,2.7-0.7,6,1.5,8.1l12.3,12.3c1.4,1.4,3.2,2.1,5.1,2.1h69.4
		c4,0,7.2-3.2,7.2-7.2V293c0-1.9-0.8-3.7-2.1-5.1l-2.4-2.4C253,282,247,283.1,244.9,287.6z"/>
	<path fill="#00D69A" d="M555.4,287.6l79.3,172.7c1.3,2.7,0.7,6-1.5,8.1l-12.3,12.3c-1.4,1.4-3.2,2.1-5.1,2.1h-69.4
		c-4,0-7.2-3.2-7.2-7.2V293c0-1.9,0.8-3.7,2.1-5.1l2.4-2.4C547.3,282,553.3,283.1,555.4,287.6z"/>
	<path fill="#00D69A" d="M399,96.1c-60.7,0-109.9,57.6-109.9,128.5h219.7C508.9,153.6,459.7,96.1,399,96.1z M399,203
		c-18.3,0-33.1-14.8-33.1-33.1s14.8-33.1,33.1-33.1c18.3,0,33.1,14.8,33.1,33.1S417.3,203,399,203z"/>
	<path fill="#00D69A" d="M289,252v242.9l24.5,25.1h39h24.9h43.8H446h38.6h2.4v-1.5l21-23.6V252H289z M428,298v172.7
		c0,12.7-13.1,23-29.2,23c-15.7,0-28.8-10.3-28.8-23V298c0-12.7,13.1-23,28.8-23C414.9,275,428,285.3,428,298z"/>
	<rect x="377.4" y="539.6" fill="#00D69A" width="43.7" height="153.3"/>
</g>
</svg>
